<mxfile host="app.diagrams.net" modified="2022-06-01T02:29:06.859Z" agent="5.0 (Windows NT 10.0; WOW64) AppleWebKit/537.36 (KHTML, like Gecko) Chrome/102.0.5005.63 Safari/537.36" etag="-eHPErBG6ndQrwfog7EQ" version="17.4.1" type="github">
  <diagram id="wNjajI2MCHbM71Gs-DAX" name="ページ1">
    <mxGraphModel dx="781" dy="896" grid="1" gridSize="39.37" guides="1" tooltips="1" connect="1" arrows="1" fold="1" page="1" pageScale="1" pageWidth="827" pageHeight="1169" math="0" shadow="0">
      <root>
        <mxCell id="0" />
        <mxCell id="1" parent="0" />
        <mxCell id="RUVW1VNI79D-d2WEvtp2-1" value="&lt;div&gt;&lt;div&gt;Linux でトラックポイントまわりの挙動を細かく設定したい&lt;/div&gt;&lt;div&gt;https://xr0038.hatenadiary.jp/entry/2015/03/09/072354&lt;/div&gt;&lt;div&gt;&lt;br&gt;&lt;/div&gt;&lt;div&gt;目的&lt;/div&gt;&lt;div&gt;Ubuntu 14.04 に ThinkPad の bluetooth キーボードを接続して使用している．トラックポイント + 中ボタンでマウスホイール操作によるスクロールをしようとするときに，トラックポイントでカーソルを動かすタイミングによってはミドルクリックのペーストが先に認識されてしまうことが度々ある．トラックポイントに関係する細かいプロパティを設定することで，ミドルクリックペーストが暴発しないようにしたい．&lt;/div&gt;&lt;/div&gt;" style="text;html=1;strokeColor=default;fillColor=none;align=left;verticalAlign=top;whiteSpace=wrap;rounded=0;fontSize=10;" parent="1" vertex="1">
          <mxGeometry width="472.44" height="157.48" as="geometry" />
        </mxCell>
        <mxCell id="f5EtCbAzlyeyAya_sc4U-1" value="&lt;div&gt;&lt;div&gt;webhook.ps1&lt;/div&gt;&lt;div&gt;&lt;br&gt;&lt;/div&gt;&lt;div&gt;$shell=New-Object -ComObject wscript.shell&lt;/div&gt;&lt;div&gt;$shell.Popup($args[0],1, &quot;webHook&quot;,1)&lt;/div&gt;&lt;div&gt;Write-Host $args[0]&lt;/div&gt;&lt;div&gt;Write-Host $args[1]&lt;/div&gt;&lt;div&gt;Invoke-WebRequest -Method Post -Body @{value1=$args[0];value2=&quot;&quot;} https://maker.ifttt.com/trigger/noti/with/key/c2GSqyEIlBDNJO7DsKLy3t&lt;/div&gt;&lt;/div&gt;&lt;div&gt;&lt;br&gt;&lt;/div&gt;&lt;div&gt;&lt;br&gt;&lt;/div&gt;&lt;div&gt;AutoIT &amp;gt; ps1&lt;/div&gt;&lt;div&gt;&lt;div&gt;RunWait(@ComSpec &amp;amp; &quot; /c &quot; &amp;amp; &quot;powershell -File &quot; &amp;amp; @ScriptDir &amp;amp; &quot;\img通知検知\to_webhook.ps1 &quot; &amp;amp; $retStr &amp;amp; &quot; &quot; &amp;amp;$val2, &quot;&quot;, @SW_HIDE)&lt;/div&gt;&lt;/div&gt;&lt;div&gt;&lt;br&gt;&lt;/div&gt;" style="text;html=1;strokeColor=default;fillColor=none;align=left;verticalAlign=top;whiteSpace=wrap;rounded=0;fontSize=10;" parent="1" vertex="1">
          <mxGeometry y="196.85000000000002" width="708.66" height="1614.17" as="geometry" />
        </mxCell>
      </root>
    </mxGraphModel>
  </diagram>
</mxfile>
